#
#
#

mtllib BugBB.mtl


#
#  Mesh
#
g  Mesh

v -0.079960 0.582367 0.026776
v -0.079960 0.582367 -0.070711
v -0.079960 0.413586 -0.070711
v -0.079960 0.413586 0.026776
v 0.169374 0.582367 -0.070711
v 0.169374 0.413586 -0.070711
v 0.169374 0.582367 0.026776
v 0.169374 0.413586 0.026776
v 0.100389 0.428735 0.090984
v 0.100389 0.428735 -0.124664
v 0.100389 0.233891 -0.124664
v 0.100389 0.233891 0.090984
v 0.489019 0.428735 -0.124664
v 0.489019 0.233891 -0.124664
v 0.489019 0.428735 0.090984
v 0.489019 0.233891 0.090984
vn -0.577350 0.577350 0.577350
vn -0.577350 0.577350 -0.577350
vn -0.577350 -0.577350 -0.577350
vn -0.577350 -0.577350 0.577350
vn 0.577350 0.577350 -0.577350
vn 0.577350 -0.577350 -0.577350
vn 0.577350 0.577350 0.577350
vn 0.577350 -0.577350 0.577350
vn -0.577350 0.577350 0.577350
vn -0.577350 0.577350 -0.577350
vn -0.577350 -0.577350 -0.577350
vn -0.577350 -0.577350 0.577350
vn 0.577350 0.577350 -0.577350
vn 0.577350 -0.577350 -0.577350
vn 0.577350 0.577350 0.577350
vn 0.577350 -0.577350 0.577350
f 1//1 2//2 3//3 4//4
f 2//2 5//5 6//6 3//3
f 5//5 7//7 8//8 6//6
f 7//7 1//1 4//4 8//8
f 4//4 3//3 6//6 8//8
f 7//7 5//5 2//2 1//1
f 9//9 10//10 11//11 12//12
f 10//10 13//13 14//14 11//11
f 13//13 15//15 16//16 14//14
f 15//15 9//9 12//12 16//16
f 12//12 11//11 14//14 16//16
f 15//15 13//13 10//10 9//9
